<svg id="Icon" xmlns="http://www.w3.org/2000/svg" viewBox="0 0 23.32 18.3"><title>template</title><path d="M5,14.35H4v-4H4l-0.9,4h-1l-0.88-4h0v4H0.31V9.6H1.78l0.87,3.75h0L3.52,9.6H5v4.75Z" transform="translate(-0.31 -2.83)"/><polygon points="14.22 7.84 13.6 9.72 14.83 9.72 14.23 7.84 14.22 7.84"/><path d="M23.48,13.61a8.81,8.81,0,0,0-.11-3.77l-2.44,2.33H19.12V12a1.05,1.05,0,0,1-1,.82,1.07,1.07,0,0,1,0-2.14,1.05,1.05,0,0,1,1,.82V11.45h1.47L23.13,9a9.15,9.15,0,1,0,.17,5.43H19.12c-0.09,0-1.76,1.73-1.76,1.73l-0.08-.07a1,1,0,0,1,.13.48,1.07,1.07,0,1,1-1.07-1.07,1.06,1.06,0,0,1,.38.08h0l2-2h4.73Zm-15.55,0A1,1,0,0,0,9,12.73h1a2,2,0,0,1-2.09,1.75c-1.28,0-2.2-.85-2.2-2.5A2.21,2.21,0,0,1,7.93,9.47,1.91,1.91,0,0,1,10,11.16H9a1,1,0,0,0-1.06-.82c-0.48,0-1.19.32-1.19,1.66C6.74,12.85,7.08,13.62,7.94,13.62Zm3.75,0.74h-1V9.6h1v4.75Zm4,0-0.31-1H13.64l-0.33,1H12.25L14,9.6h1.16l1.7,4.75H15.73Z" transform="translate(-0.31 -2.83)"/></svg>