<?xml version="1.0" encoding="UTF-8"?>
<svg xmlns="http://www.w3.org/2000/svg" xmlns:xlink="http://www.w3.org/1999/xlink" viewBox="0 0 24 24" version="1.1" width="24px" height="24px">
<g id="surface1">
<path style=" " d="M 6.09375 4 C 5.394531 4 4.804688 4.398438 4.40625 5 L 2.1875 8.59375 C 2.085938 8.792969 2 9.199219 2 9.5 L 2 20 C 2 21.101563 2.898438 22 4 22 L 20 22 C 21.101563 22 22 21.101563 22 20 L 22 9.5 C 22 9.199219 21.914063 8.792969 21.8125 8.59375 L 19.59375 5 C 19.195313 4.398438 18.605469 4 17.90625 4 Z M 5.90625 6 L 11 6 L 11 9 L 4.1875 9 Z M 13 6 L 18.09375 6 L 19.8125 9 L 13 9 Z M 9 11 L 15 11 C 15.601563 11 16 11.398438 16 12 C 16 12.601563 15.601563 13 15 13 L 9 13 C 8.398438 13 8 12.601563 8 12 C 8 11.398438 8.398438 11 9 11 Z "/>
</g>
</svg>
