<svg xmlns="http://www.w3.org/2000/svg" width="23.3" height="18.3"><style>.Icon{fill:#fff;}</style><rect width="100" height="100" fill="none"/><title> template</title><g class="currentLayer"><title> Layer 1</title><path class="Icon" d="M4.7 11.5H3.7v-4H3.7l-0.9 4h-1l-0.9-4h0v4H0V6.8H1.5l0.9 3.8h0L3.2 6.8H4.7v4.8z"/><polygon class="Icon selected" points="14.2 7.8 13.6 9.7 14.8 9.7 14.2 7.8 14.2 7.8 "/><path class="Icon" d="M23.2 10.8a8.8 8.8 0 0 0-0.1-3.8l-2.4 2.3H18.8V9.2a1 1 0 0 1-1 0.8 1.1 1.1 0 0 1 0-2.1 1 1 0 0 1 1 0.8V8.6h1.5L22.8 6.2a9.1 9.1 0 1 0 0.2 5.4H18.8c-0.1 0-1.8 1.7-1.8 1.7l-0.1-0.1a1 1 0 0 1 0.1 0.5 1.1 1.1 0 1 1-1.1-1.1 1.1 1.1 0 0 1 0.4 0.1h0l2-2h4.7zm-15.6 0A1 1 0 0 0 8.7 9.9h1a2 2 0 0 1-2.1 1.8c-1.3 0-2.2-0.9-2.2-2.5A2.2 2.2 0 0 1 7.6 6.6 1.9 1.9 0 0 1 9.7 8.3H8.7a1 1 0 0 0-1.1-0.8c-0.5 0-1.2 0.3-1.2 1.7C6.4 10 6.8 10.8 7.6 10.8zm3.8 0.7h-1V6.8h1v4.8zm4 0l-0.3-1H13.3l-0.3 1H11.9L13.7 6.8h1.2l1.7 4.8H15.4z"/></g></svg>